<svg xmlns="http://www.w3.org/2000/svg" viewBox="0 0 128 128" width="128" height="128" role="img" aria-labelledby="title">
<title id="title">T-Rex legendario: corona y medalla</title>
<circle cx="64" cy="66" r="59" fill="#eadfff"/>
<ellipse cx="64" cy="118" rx="40" ry="6" fill="#24453f" opacity=".12"/>
<g stroke="#24453f" stroke-width="2.7" stroke-linecap="round" stroke-linejoin="round"><path d="M36 96Q18 106 11 84Q9 110 37 114L99 114Q103 103 89 94L91 80Q120 76 117 58Q115 41 90 40Q80 19 56 26Q29 32 34 62L42 90Z" fill="#a08bd2" /><path d="M56 89Q59 71 79 80L89 95 95 113 47 113Z" fill="#e1d4f3" stroke="none"/><path d="M36 44 24 41 32 54 23 60 35 66 27 78 41 80" fill="#c5abea" /><ellipse cx="67" cy="48" rx="5" ry="7" fill="#24453f" /><ellipse cx="68" cy="46" rx="1.5" ry="2" fill="white" stroke="none"/><ellipse cx="102" cy="55" rx="2.3" ry="2.3" fill="#24453f" stroke="none"/><path d="M74 69Q96 80 113 66" fill="none" /><path d="M85 74 89 82 95 76" fill="#fffbea" /><path d="M59 94Q66 82 74 91L81 94" fill="none" /><path d="M48 107 48 115M81 108 82 115" fill="none" /><ellipse cx="82" cy="60" rx="7" ry="4" fill="#f09c80" stroke="none"/><path d="M41 35 38 11 53 22 64 5 76 23 93 13 88 36Z" fill="#f8cd54" /><path d="M43 30 86 30 85 39 44 39Z" fill="#efb343" /><ellipse cx="65" cy="25" rx="4" ry="5" fill="#a77ddb" /><path d="M49 81 64 91 80 83" fill="none" stroke="#f4c95d" stroke-width="5"/><path transform="translate(65 97) scale(0.8)" d="M0-11 3-4 11-3 5 3 7 11 0 7-7 11-5 3-11-3-3-4Z" fill="#ffe06b"/></g>
</svg>
